<?xml version="1.0" encoding="iso-8859-1"?>
<!-- Generator: Adobe Illustrator 18.0.0, SVG Export Plug-In . SVG Version: 6.00 Build 0)  -->
<!DOCTYPE svg PUBLIC "-//W3C//DTD SVG 1.1//EN" "http://www.w3.org/Graphics/SVG/1.1/DTD/svg11.dtd">
<svg version="1.1" id="Capa_1" xmlns="http://www.w3.org/2000/svg" xmlns:xlink="http://www.w3.org/1999/xlink" x="0px" y="0px"
	 viewBox="0 0 297 297" style="enable-background:new 0 0 297 297;" xml:space="preserve">
<g>
	<path d="M297,145.21c0-18.909-14.164-34.571-32.44-36.933c-9.98-11.776-45.624-46.965-115.162-46.965
		c-69.739,0-106.636,35.385-116.83,46.949C14.231,110.568,0,126.259,0,145.21c0,16.496,10.784,30.513,25.67,35.392l5.826,22.478
		c4.739,18.285,23.248,32.608,42.138,32.608h151.527c18.89,0,37.398-14.323,42.138-32.608l6.011-23.191
		C287.161,174.456,297,160.965,297,145.21z M225.161,216.836H73.634c-10.173,0-21.337-8.639-23.89-18.486l-4.355-16.8
		c7.735-1.733,14.569-5.877,19.667-11.602c6.825,7.666,16.767,12.503,27.814,12.503c11.048,0,20.988-4.837,27.814-12.503
		c6.827,7.666,16.767,12.503,27.815,12.503s20.988-4.837,27.815-12.503c6.826,7.666,16.767,12.503,27.814,12.503
		c11.049,0,20.989-4.837,27.815-12.503c5.469,6.142,12.939,10.459,21.373,11.937l-4.268,16.464
		C246.498,208.197,235.334,216.836,225.161,216.836z M259.76,163.6c-10.14,0-18.389-8.249-18.389-18.39
		c0-5.205-4.221-9.426-9.426-9.426c-5.205,0-9.426,4.221-9.426,9.426c0,10.141-8.25,18.39-18.39,18.39
		c-10.14,0-18.39-8.249-18.39-18.39c0-5.205-4.22-9.426-9.425-9.426c-5.206,0-9.426,4.221-9.426,9.426
		c0,10.141-8.25,18.39-18.39,18.39s-18.39-8.249-18.39-18.39c0-5.205-4.22-9.426-9.426-9.426c-5.205,0-9.425,4.221-9.425,9.426
		c0,10.141-8.25,18.39-18.39,18.39c-10.14,0-18.389-8.249-18.389-18.39c0-5.205-4.221-9.426-9.426-9.426
		c-5.205,0-9.426,4.221-9.426,9.426c0,10.141-8.249,18.39-18.39,18.39c-10.14,0-18.389-8.249-18.389-18.39
		c0-10.14,8.249-18.389,18.389-18.389c2.967,0,5.785-1.429,7.565-3.803c0.08-0.107,8.269-10.888,25.19-21.49
		c22.624-14.177,49.339-21.364,79.401-21.364c30.004,0,56.38,7.159,78.392,21.279c16.448,10.551,24.191,21.277,24.243,21.351
		c1.764,2.523,4.648,4.027,7.727,4.027c10.14,0,18.389,8.249,18.389,18.389C278.148,155.351,269.899,163.6,259.76,163.6z"/>
	<path d="M149.398,84.641c-5.205,0-9.426,4.221-9.426,9.426v15.553c0,5.205,4.221,9.426,9.426,9.426
		c5.205,0,9.426-4.221,9.426-9.426V94.066C158.823,88.861,154.602,84.641,149.398,84.641z"/>
	<path d="M118.797,88.665c-3.987-3.347-9.934-2.827-13.278,1.162l-9.999,11.914c-3.346,3.987-2.826,9.934,1.162,13.279
		c1.766,1.481,3.916,2.205,6.054,2.205c2.69,0,5.361-1.145,7.226-3.367l9.998-11.914C123.305,97.956,122.785,92.011,118.797,88.665z
		"/>
	<path d="M193.276,89.827c-3.347-3.989-9.292-4.507-13.278-1.162c-3.988,3.346-4.508,9.291-1.162,13.279l9.998,11.914
		c1.865,2.223,4.535,3.367,7.226,3.367c2.138,0,4.288-0.724,6.054-2.205c3.988-3.346,4.508-9.292,1.162-13.279L193.276,89.827z"/>
</g>
<g>
</g>
<g>
</g>
<g>
</g>
<g>
</g>
<g>
</g>
<g>
</g>
<g>
</g>
<g>
</g>
<g>
</g>
<g>
</g>
<g>
</g>
<g>
</g>
<g>
</g>
<g>
</g>
<g>
</g>
</svg>
